<svg xmlns="http://www.w3.org/2000/svg" viewBox="0 0 800 500">
  <defs>
    <linearGradient id="bg4" x1="0%" y1="0%" x2="100%" y2="100%">
      <stop offset="0%" style="stop-color:#0a0a1a"/>
      <stop offset="100%" style="stop-color:#0a1a0a"/>
    </linearGradient>
  </defs>
  <rect width="800" height="500" fill="url(#bg4)"/>
  <!-- Dashboard mockup -->
  <g transform="translate(120,60)">
    <!-- Dashboard frame -->
    <rect x="0" y="0" width="560" height="350" rx="12" fill="#1c1c1c" stroke="#333" stroke-width="1.5"/>
    <!-- Top bar -->
    <rect x="0" y="0" width="560" height="40" rx="12" fill="#252525"/>
    <rect x="0" y="25" width="560" height="15" fill="#252525"/>
    <circle cx="20" cy="20" r="5" fill="#ff5f57"/>
    <circle cx="38" cy="20" r="5" fill="#febc2e"/>
    <circle cx="56" cy="20" r="5" fill="#28c840"/>
    <text x="280" y="25" font-family="sans-serif" font-size="12" font-weight="bold" fill="#ffffff" text-anchor="middle">FortiFi — Asset Recovery Dashboard</text>
    <!-- Sidebar -->
    <rect x="0" y="40" width="120" height="310" fill="#1a1a1a"/>
    <rect x="10" y="55" width="100" height="28" rx="6" fill="#ff4d4f" opacity="0.15"/>
    <text x="60" y="73" font-family="sans-serif" font-size="10" fill="#ff4d4f" text-anchor="middle">Dashboard</text>
    <text x="60" y="105" font-family="sans-serif" font-size="10" fill="#777" text-anchor="middle">Borrowers</text>
    <text x="60" y="130" font-family="sans-serif" font-size="10" fill="#777" text-anchor="middle">Cases</text>
    <text x="60" y="155" font-family="sans-serif" font-size="10" fill="#777" text-anchor="middle">Reports</text>
    <text x="60" y="180" font-family="sans-serif" font-size="10" fill="#777" text-anchor="middle">Settings</text>
    <!-- Stats cards -->
    <rect x="135" y="55" width="125" height="65" rx="8" fill="#252525"/>
    <text x="145" y="75" font-family="sans-serif" font-size="9" fill="#999">Total NPAs</text>
    <text x="145" y="100" font-family="sans-serif" font-size="22" font-weight="bold" fill="#ff4d4f">1,247</text>
    <rect x="275" y="55" width="125" height="65" rx="8" fill="#252525"/>
    <text x="285" y="75" font-family="sans-serif" font-size="9" fill="#999">Recovered</text>
    <text x="285" y="100" font-family="sans-serif" font-size="22" font-weight="bold" fill="#4caf50">834</text>
    <rect x="415" y="55" width="125" height="65" rx="8" fill="#252525"/>
    <text x="425" y="75" font-family="sans-serif" font-size="9" fill="#999">Pending</text>
    <text x="425" y="100" font-family="sans-serif" font-size="22" font-weight="bold" fill="#febc2e">413</text>
    <!-- Chart area -->
    <rect x="135" y="135" width="265" height="140" rx="8" fill="#252525"/>
    <text x="145" y="155" font-family="sans-serif" font-size="10" fill="#ccc">Recovery Trend</text>
    <!-- Bar chart -->
    <rect x="160" y="220" width="20" height="40" rx="2" fill="#ff4d4f" opacity="0.6"/>
    <rect x="195" y="200" width="20" height="60" rx="2" fill="#ff4d4f" opacity="0.7"/>
    <rect x="230" y="185" width="20" height="75" rx="2" fill="#ff4d4f" opacity="0.8"/>
    <rect x="265" y="195" width="20" height="65" rx="2" fill="#4caf50" opacity="0.7"/>
    <rect x="300" y="175" width="20" height="85" rx="2" fill="#4caf50" opacity="0.8"/>
    <rect x="335" y="165" width="20" height="95" rx="2" fill="#4caf50" opacity="0.9"/>
    <text x="170" y="268" font-family="sans-serif" font-size="8" fill="#666" text-anchor="middle">Jan</text>
    <text x="205" y="268" font-family="sans-serif" font-size="8" fill="#666" text-anchor="middle">Mar</text>
    <text x="240" y="268" font-family="sans-serif" font-size="8" fill="#666" text-anchor="middle">May</text>
    <text x="275" y="268" font-family="sans-serif" font-size="8" fill="#666" text-anchor="middle">Jul</text>
    <text x="310" y="268" font-family="sans-serif" font-size="8" fill="#666" text-anchor="middle">Sep</text>
    <text x="345" y="268" font-family="sans-serif" font-size="8" fill="#666" text-anchor="middle">Nov</text>
    <!-- Table area -->
    <rect x="415" y="135" width="125" height="200" rx="8" fill="#252525"/>
    <text x="425" y="155" font-family="sans-serif" font-size="10" fill="#ccc">Recent Cases</text>
    <rect x="425" y="165" width="105" height="22" rx="4" fill="#333"/>
    <text x="430" y="180" font-family="sans-serif" font-size="8" fill="#ccc">Case #1042</text>
    <rect x="425" y="192" width="105" height="22" rx="4" fill="#333" opacity="0.5"/>
    <text x="430" y="207" font-family="sans-serif" font-size="8" fill="#ccc">Case #1041</text>
    <rect x="425" y="219" width="105" height="22" rx="4" fill="#333"/>
    <text x="430" y="234" font-family="sans-serif" font-size="8" fill="#ccc">Case #1040</text>
    <rect x="425" y="246" width="105" height="22" rx="4" fill="#333" opacity="0.5"/>
    <text x="430" y="261" font-family="sans-serif" font-size="8" fill="#ccc">Case #1039</text>
    <rect x="425" y="273" width="105" height="22" rx="4" fill="#333"/>
    <text x="430" y="288" font-family="sans-serif" font-size="8" fill="#ccc">Case #1038</text>
    <!-- Status badges in table -->
    <circle cx="520" cy="176" r="3" fill="#4caf50"/>
    <circle cx="520" cy="203" r="3" fill="#febc2e"/>
    <circle cx="520" cy="230" r="3" fill="#4caf50"/>
    <circle cx="520" cy="257" r="3" fill="#ff4d4f"/>
    <circle cx="520" cy="284" r="3" fill="#febc2e"/>
    <!-- Bottom bar -->
    <rect x="135" y="290" width="265" height="45" rx="8" fill="#252525"/>
    <text x="145" y="310" font-family="sans-serif" font-size="9" fill="#999">Recovery Rate</text>
    <rect x="145" y="318" width="245" height="6" rx="3" fill="#333"/>
    <rect x="145" y="318" width="165" height="6" rx="3" fill="#4caf50"/>
    <text x="320" y="325" font-family="monospace" font-size="9" fill="#4caf50">67%</text>
  </g>
  <!-- Shield icon -->
  <g transform="translate(60,430)" opacity="0.3">
    <path d="M0,-20 L15,-12 L15,5 C15,15 0,22 0,22 C0,22 -15,15 -15,5 L-15,-12Z" fill="none" stroke="#ff4d4f" stroke-width="1.5"/>
    <text x="0" y="5" font-family="sans-serif" font-size="12" fill="#ff4d4f" text-anchor="middle">&#x2713;</text>
  </g>
  <!-- Title -->
  <text x="400" y="445" font-family="sans-serif" font-size="22" font-weight="bold" fill="#ffffff" text-anchor="middle" opacity="0.9">FortiFi — Asset Recovery System</text>
  <text x="400" y="470" font-family="sans-serif" font-size="14" fill="#ff7875" text-anchor="middle" opacity="0.7">Flask · Python · SQLite</text>
</svg>